<svg width="32" height="32" viewBox="0 0 32 32" fill="none" xmlns="http://www.w3.org/2000/svg">
<g clip-path="url(#clip0_3200_14)">
<path d="M16 32C24.8366 32 32 24.8366 32 16C32 7.16344 24.8366 0 16 0C7.16344 0 0 7.16344 0 16C0 24.8366 7.16344 32 16 32Z" fill="url(#paint0_linear_3200_14)"/>
<path d="M21.9585 20.8933L22.6692 16.3773H18.2231V13.448C18.2231 12.2123 18.8431 11.007 20.8345 11.007H22.8571V7.16231C22.8571 7.16231 21.0223 6.85718 19.2689 6.85718C15.6055 6.85718 13.2133 9.02054 13.2133 12.9353V16.3773H9.14282V20.8933H13.2133V31.8109C14.0305 31.936 14.8665 32 15.7181 32C16.5698 32 17.4059 31.936 18.2231 31.8109V20.8933H21.9585Z" fill="white"/>
</g>
<defs>
<linearGradient id="paint0_linear_3200_14" x1="16" y1="-1e-07" x2="16" y2="31.9051" gradientUnits="userSpaceOnUse">
<stop stop-color="#18ACFE"/>
<stop offset="1" stop-color="#0163E0"/>
</linearGradient>
<clipPath id="clip0_3200_14">
<rect width="32" height="32" fill="white"/>
</clipPath>
</defs>
</svg>
