<svg xmlns="http://www.w3.org/2000/svg" style="display: none;">

    <!-- Иконка Звезда -->
    <symbol id="star-icon" viewBox="0 0 24 24" stroke="currentColor" stroke-width="2" stroke-linecap="round" stroke-linejoin="round" >
        <path d="M11.525 2.295a.53.53 0 0 1 .95 0l2.31 4.679a2.123 2.123 0 0 0 1.595 1.16l5.166.756a.53.53 0 0 1 .294.904l-3.736 3.638a2.123 2.123 0 0 0-.611 1.878l.882 5.14a.53.53 0 0 1-.771.56l-4.618-2.428a2.122 2.122 0 0 0-1.973 0L6.396 21.01a.53.53 0 0 1-.77-.56l.881-5.139a2.122 2.122 0 0 0-.611-1.879L2.16 9.795a.53.53 0 0 1 .294-.906l5.165-.755a2.122 2.122 0 0 0 1.597-1.16z"/>
    </symbol>

    <!-- Иконка Аккаунт -->
    <symbol id="user-icon-round" viewBox="0 0 24 24" fill="none" stroke="currentColor" stroke-width="2" stroke-linecap="round" stroke-linejoin="round" >
        <path d="M18 20a6 6 0 0 0-12 0"/><circle cx="12" cy="10" r="4"/><circle cx="12" cy="12" r="10"/>
    </symbol>

    <!-- Иконка Сортировки -->
    <symbol id="up-down-arrows-icon" viewBox="0 0 24 24" fill="none" stroke="currentColor" stroke-width="2" stroke-linecap="round" stroke-linejoin="round" >
        <path d="m21 16-4 4-4-4"/><path d="M17 20V4"/><path d="m3 8 4-4 4 4"/><path d="M7 4v16"/>
    </symbol>

    <!-- Иконка Локации -->
    <symbol id="map-pin-icon" viewBox="0 0 24 24" fill="none" stroke="currentColor" stroke-width="2" stroke-linecap="round" stroke-linejoin="round" >
        <path d="M20 10c0 4.993-5.539 10.193-7.399 11.799a1 1 0 0 1-1.202 0C9.539 20.193 4 14.993 4 10a8 8 0 0 1 16 0"/><circle cx="12" cy="10" r="3"/>
    </symbol>

    <!-- Иконка Вход -->
    <symbol id="log-in-icon" viewBox="0 0 24 24" fill="none" stroke="currentColor" stroke-width="2" stroke-linecap="round" stroke-linejoin="round" >
        <path d="m10 17 5-5-5-5"/><path d="M15 12H3"/><path d="M15 3h4a2 2 0 0 1 2 2v14a2 2 0 0 1-2 2h-4"/>
    </symbol>

    <!-- Иконка Плюс -->
    <symbol id="plus-icon" viewBox="0 0 24 24" fill="none" stroke="currentColor" stroke-width="2" stroke-linecap="round" stroke-linejoin="round" >
        <path d="M5 12h14"/><path d="M12 5v14"/>
    </symbol>

    <!-- Иконка Поиск -->
    <symbol id="search-icon" viewBox="0 0 24 24" fill="none" stroke="currentColor" stroke-width="2" stroke-linecap="round" stroke-linejoin="round" >
        <path d="m21 21-4.34-4.34"/><circle cx="11" cy="11" r="8"/>
    </symbol>

    <!-- Иконка Сердечко -->
    <symbol id="heart-icon" viewBox="0 0 22 19" stroke="currentColor">
        <path d="M11.6851 2.63897L11 3.3415L10.315 2.63898C8.18404 0.453692 4.72912 0.45369 2.5982 2.63898C0.5245 4.76559 0.460783 8.19279 2.45393 10.3989L8.18026 16.7371C9.70154 18.421 12.2984 18.421 13.8197 16.7371L19.5461 10.3989C21.5392 8.19277 21.4755 4.76557 19.4018 2.63896C17.2709 0.453677 13.816 0.453679 11.6851 2.63897Z" stroke-width="2" stroke-linecap="round" stroke-linejoin="round"/>
    </symbol>

    <!-- Иконка Стрелка влево(шеврон) -->
    <symbol id="chevron-left-icon" viewBox="0 0 24 24" fill="none" stroke="currentColor" stroke-width="2" stroke-linecap="round" stroke-linejoin="round" >
        <path d="m15 18-6-6 6-6"/>
    </symbol>

    <!-- Иконка Стрелка вправо(шеврон) -->
    <symbol id="chevron-right-icon" viewBox="0 0 24 24" fill="none" stroke="currentColor" stroke-width="2" stroke-linecap="round" stroke-linejoin="round" >
        <path d="m9 18 6-6-6-6"/>
    </symbol>

    <!-- Иконка Открытый глаз -->
    <symbol id="open-eye-icon" viewBox="0 0 24 24" fill="none" stroke="currentColor" stroke-width="2" stroke-linecap="round" stroke-linejoin="round" >
        <path d="M2.062 12.348a1 1 0 0 1 0-.696 10.75 10.75 0 0 1 19.876 0 1 1 0 0 1 0 .696 10.75 10.75 0 0 1-19.876 0"/><circle cx="12" cy="12" r="3"/>
    </symbol>

    <!-- Иконка Закрытый глаз -->
    <symbol id="closed-eye-icon" viewBox="0 0 24 24" fill="none" stroke="currentColor" stroke-width="2" stroke-linecap="round" stroke-linejoin="round" >
        <path d="m15 18-.722-3.25"/><path d="M2 8a10.645 10.645 0 0 0 20 0"/><path d="m20 15-1.726-2.05"/><path d="m4 15 1.726-2.05"/><path d="m9 18 .722-3.25"/>
    </symbol>

    <!-- RiviKiwi стандартное лого(зеленая линия)-->
    <symbol id="rivi-kiwi-logo" viewBox="0 0 47 43" fill="none">
        <path fill-rule="evenodd" clip-rule="evenodd" d="M9.61037 32.7991C10.4569 33.2225 11.0247 33.7991 11.3809 34.4226L15.9137 42.9061H22.6173L19.8224 37.6752C19.7013 37.5096 19.6028 37.3267 19.5315 37.1308C19.4462 36.8967 19.3998 36.6442 19.3998 36.381C19.3998 35.4446 19.9878 34.6444 20.8175 34.3241C21.0176 34.2468 21.2317 34.1975 21.4551 34.1809C21.4699 34.1798 21.4849 34.1788 21.4998 34.178C25.9779 33.1255 29.7889 30.3621 32.1925 26.6219C32.269 26.4723 32.3336 26.3166 32.3977 26.1623C32.5569 25.7788 32.7125 25.404 33.0371 25.1542C33.2498 24.9904 33.4934 24.8642 33.7576 24.7853C33.9607 24.7247 34.176 24.6921 34.3991 24.6921C34.52 24.6921 34.6388 24.7017 34.7545 24.7202C35.2927 24.8059 35.7663 25.0833 36.102 25.4794C36.2099 25.6067 36.3035 25.7462 36.3805 25.8956L47 41.7679L39.9435 24.6128C39.8475 24.4464 39.7728 24.2664 39.7229 24.0764C39.6761 23.8982 39.6512 23.7113 39.6512 23.5186C39.6512 22.9769 39.848 22.4808 40.1744 22.0968C40.2391 22.0207 40.3089 21.949 40.3833 21.8823C41.925 20.2462 42.8687 18.0485 42.8687 15.6321C42.8687 10.5765 38.7378 6.47817 33.642 6.47817C33.395 6.47817 33.1619 6.52531 32.9293 6.57235C32.6976 6.61919 32.4664 6.66594 32.2225 6.66594C32.1111 6.66594 32.0016 6.65781 31.8946 6.64211C31.4936 6.58331 31.1274 6.41832 30.8261 6.17687C30.705 6.0798 30.617 5.9679 30.5223 5.84765C30.4627 5.77187 30.4005 5.69277 30.3257 5.61198C27.1342 2.16237 22.5515 0 17.4598 0C7.81701 0 0 7.75535 0 17.3221C0 21.5977 0.0236507 25.877 0.0473051 30.1569C0.0709671 34.4383 0.0946329 38.7203 0.0946329 43H6.62431V30.9057C7.54837 31.6322 8.54829 32.2679 9.61037 32.7991ZM33.4151 18.2043C32.8847 18.1588 32.4331 17.9323 31.8913 17.9323C30.1213 17.9323 28.5981 18.9803 27.9176 20.485C27.8417 20.7326 27.757 20.9764 27.664 21.2161C27.5327 21.5546 27.3848 21.8848 27.2212 22.206C25.4204 25.7416 21.7255 28.1659 17.4598 28.1659C16.4453 28.1659 15.4632 28.0288 14.5311 27.7723C10.9616 26.7898 8.12653 24.0554 7.02561 20.5611C6.84213 19.9788 6.70682 19.3753 6.62431 18.7554C6.56188 18.2864 6.52967 17.8079 6.52967 17.3221C6.52967 17.2593 6.53021 17.1967 6.53128 17.1343C6.63229 11.232 11.4865 6.47817 17.4598 6.47817C20.9045 6.47817 23.9771 8.05915 25.9805 10.5296C26.2092 10.8117 26.4239 11.1053 26.6237 11.4095C26.7802 11.6477 26.9275 11.8923 27.0651 12.143C27.8581 13.206 29.1311 13.8952 30.5664 13.8952C31.0486 13.8952 31.5124 13.8174 31.9459 13.6739C32.3794 13.5303 32.6435 13.2087 33.064 13.1141C33.2499 13.0723 33.4433 13.0502 33.642 13.0502C33.9107 13.0502 34.1699 13.0906 34.4137 13.1656C35.4742 13.4918 36.2444 14.4727 36.2444 15.6321C36.2444 16.6011 35.7063 17.4455 34.9104 17.8871C34.5352 18.0953 34.1026 18.214 33.642 18.214C33.5655 18.214 33.4899 18.2107 33.4151 18.2043Z" fill="#90C825"/>
    </symbol>

    <!-- Логотип Instagram -->
    <symbol id="insta-logo" viewBox="0 0 24 24" fill="none" stroke="currentColor" stroke-width="2" stroke-linecap="round" stroke-linejoin="round" >
        <rect width="20" height="20" x="2" y="2" rx="5" ry="5"/><path d="M16 11.37A4 4 0 1 1 12.63 8 4 4 0 0 1 16 11.37z"/><line x1="17.5" x2="17.51" y1="6.5" y2="6.5"/>
    </symbol>

    <!-- Логотип Facebook -->
    <symbol id="facebook-logo" viewBox="0 0 24 24" fill="none" stroke="currentColor" stroke-width="2" stroke-linecap="round" stroke-linejoin="round" >
        <path d="M18 2h-3a5 5 0 0 0-5 5v3H7v4h3v8h4v-8h3l1-4h-4V7a1 1 0 0 1 1-1h3z"/>
    </symbol>
    <!-- Логотип Facebook Цветной -->
    <symbol id="facebook-color-logo" viewBox="0 0 32 32" fill="none">
        <g clip-path="url(#clip0_3200_14)">
        <path d="M16 32C24.8366 32 32 24.8366 32 16C32 7.16344 24.8366 0 16 0C7.16344 0 0 7.16344 0 16C0 24.8366 7.16344 32 16 32Z" fill="url(#paint0_linear_3200_14)"/>
        <path d="M21.9585 20.8933L22.6692 16.3773H18.2231V13.448C18.2231 12.2123 18.8431 11.007 20.8345 11.007H22.8571V7.16231C22.8571 7.16231 21.0223 6.85718 19.2689 6.85718C15.6055 6.85718 13.2133 9.02054 13.2133 12.9353V16.3773H9.14282V20.8933H13.2133V31.8109C14.0305 31.936 14.8665 32 15.7181 32C16.5698 32 17.4059 31.936 18.2231 31.8109V20.8933H21.9585Z" fill="white"/>
        </g>
        <defs>
        <linearGradient id="paint0_linear_3200_14" x1="16" y1="-1e-07" x2="16" y2="31.9051" gradientUnits="userSpaceOnUse">
        <stop stop-color="#18ACFE"/>
        <stop offset="1" stop-color="#0163E0"/>
        </linearGradient>
        <clipPath id="clip0_3200_14">
        <rect width="32" height="32" fill="white"/>
        </clipPath>
        </defs>
    </symbol>
    <!-- Логотип Github -->
    <symbol id="github-logo" viewBox="0 0 24 24" fill="none" stroke="currentColor" stroke-width="2" stroke-linecap="round" stroke-linejoin="round" >
        <path d="M15 22v-4a4.8 4.8 0 0 0-1-3.5c3 0 6-2 6-5.5.08-1.25-.27-2.48-1-3.5.28-1.15.28-2.35 0-3.5 0 0-1 0-3 1.5-2.64-.5-5.36-.5-8 0C6 2 5 2 5 2c-.3 1.15-.3 2.35 0 3.5A5.403 5.403 0 0 0 4 9c0 3.5 3 5.5 6 5.5-.39.49-.68 1.05-.85 1.65-.17.6-.22 1.23-.15 1.85v4"/><path d="M9 18c-4.51 2-5-2-7-2"/>
    </symbol>

    <!-- Логотип VK -->
    <symbol id="vk-logo" viewBox="0 0 55 55" fill="none">
        <rect width="55" height="55" rx="27.5" fill="#0077FF"/>
        <path d="M29.3623 39.7604C16.976 39.7604 9.46119 31.1507 9.16675 16.8438H15.4401C15.6357 27.3533 20.4082 31.8067 24.0668 32.7225V16.8438H30.0786V25.9135C33.6075 25.5217 37.3012 21.3963 38.5427 16.8438H44.4601C43.513 22.4419 39.492 26.5674 36.6508 28.2691C39.4942 29.6449 44.069 33.2464 45.8334 39.7604H39.3294C37.956 35.406 34.5919 32.0335 30.0808 31.5756V39.7604H29.3623Z" fill="white"/>
    </symbol>

    <!-- Логотип Яндекс -->
    <symbol id="yandex-red-logo" viewBox="0 0 32 32" fill="none">
        <g clip-path="url(#clip0_3199_10)">
        <path d="M16 32C24.8366 32 32 24.8366 32 16C32 7.16344 24.8366 0 16 0C7.16344 0 0 7.16344 0 16C0 24.8366 7.16344 32 16 32Z" fill="#FF0000"/>
        <path d="M21.7143 26.2858H18.1224V8.49681H16.5195C13.581 8.49681 12.0374 9.97618 12.0374 12.1669C12.0374 14.6528 13.1059 15.8075 15.3023 17.2876L17.113 18.5014L11.8887 26.2858H8L12.6901 19.33C9.98914 17.4057 8.47507 15.5411 8.47507 12.3742C8.47507 8.40754 11.236 5.71436 16.4899 5.71436H21.7143V26.2858Z" fill="#FCFCFC"/>
        </g>
        <defs>
        <clipPath id="clip0_3199_10">
        <rect width="32" height="32" fill="white"/>
        </clipPath>
        </defs>
    </symbol>

    <!-- Логотип Google -->
    <symbol id="google-color-logo" viewBox="0 0 55 57" fill="none">
        <path d="M28.0616 10.8504C33.3309 10.8504 36.8853 13.1264 38.912 15.0284L46.8315 7.29593C41.9676 2.77495 35.6382 0 28.0616 0C17.0865 0 7.60806 6.29819 2.99353 15.4649L12.0667 22.5114C14.3428 15.7455 20.641 10.8504 28.0616 10.8504Z" fill="#EA4335"/>
        <path d="M55 28.685C55 26.3777 54.8129 24.694 54.4076 22.948H28.0612V33.3618H43.5261C43.2143 35.9497 41.5306 39.8471 37.7891 42.4662L46.644 49.3256C51.9444 44.4304 55 37.2281 55 28.685Z" fill="#4285F4"/>
        <path d="M12.0975 33.6111C11.5051 31.8651 11.1622 29.9943 11.1622 28.0612C11.1622 26.1281 11.5051 24.2574 12.0664 22.5113L2.99321 15.4648C1.09127 19.2687 0 23.5402 0 28.0612C0 32.5822 1.09127 36.8538 2.99321 40.6576L12.0975 33.6111Z" fill="#FBBC05"/>
        <path d="M28.0617 56.1227C35.6382 56.1227 41.9988 53.6284 46.6445 49.3256L37.7896 42.4662C35.42 44.1187 32.2397 45.2723 28.0617 45.2723C20.641 45.2723 14.3428 40.3772 12.0979 33.6113L3.02478 40.6578C7.63931 49.8245 17.0866 56.1227 28.0617 56.1227Z" fill="#34A853"/>
    </symbol>

    <!-- Логотип Apple -->
    <symbol id="apple-black-logo" viewBox="0 0 50 60" fill="none">
        <path d="M41.8039 31.7067C41.7774 26.7906 43.9825 23.0801 48.4458 20.3475C45.9485 16.7441 42.1759 14.7616 37.1945 14.3731C32.4787 13.9981 27.3247 17.146 25.4384 17.146C23.4458 17.146 18.8762 14.5071 15.2896 14.5071C7.87726 14.6277 0 20.468 0 32.3496C0 35.8592 0.637619 39.4849 1.91286 43.2266C3.61318 48.1427 9.75027 60.1984 16.153 59.9975C19.5005 59.9171 21.865 57.5998 26.2221 57.5998C30.4463 57.5998 32.6381 59.9975 36.3709 59.9975C42.8268 59.9038 48.3794 48.9464 50 44.0169C41.339 39.9046 41.8039 31.9612 41.8039 31.7067ZM34.2853 9.71159C37.9118 5.37151 37.5797 1.4199 37.4734 0C34.2721 0.187534 30.5659 2.19683 28.4538 4.67496C26.1291 7.32723 24.7609 10.6091 25.0531 14.3062C28.5202 14.5741 31.6817 12.7791 34.2853 9.71159Z" fill="black"/>
    </symbol>

</svg>
