<svg width="32" height="32" viewBox="0 0 32 32" fill="none" xmlns="http://www.w3.org/2000/svg">
<g clip-path="url(#clip0_3199_10)">
<path d="M16 32C24.8366 32 32 24.8366 32 16C32 7.16344 24.8366 0 16 0C7.16344 0 0 7.16344 0 16C0 24.8366 7.16344 32 16 32Z" fill="#FF0000"/>
<path d="M21.7143 26.2858H18.1224V8.49681H16.5195C13.581 8.49681 12.0374 9.97618 12.0374 12.1669C12.0374 14.6528 13.1059 15.8075 15.3023 17.2876L17.113 18.5014L11.8887 26.2858H8L12.6901 19.33C9.98914 17.4057 8.47507 15.5411 8.47507 12.3742C8.47507 8.40754 11.236 5.71436 16.4899 5.71436H21.7143V26.2858Z" fill="#FCFCFC"/>
</g>
<defs>
<clipPath id="clip0_3199_10">
<rect width="32" height="32" fill="white"/>
</clipPath>
</defs>
</svg>
